<?xml version="1.0" standalone="no"?>
<!DOCTYPE svg PUBLIC "-//W3C//DTD SVG 20010904//EN"
 "http://www.w3.org/TR/2001/REC-SVG-20010904/DTD/svg10.dtd">
<svg version="1.0" xmlns="http://www.w3.org/2000/svg"
 width="1024.000000pt" height="1024.000000pt" viewBox="0 0 1024.000000 1024.000000"
 preserveAspectRatio="xMidYMid meet">
<metadata>
Created by potrace 1.14, written by Peter Selinger 2001-2017
</metadata>
<g transform="translate(0.000000,1024.000000) scale(0.100000,-0.100000)"
fill="#000000" stroke="none">
<path d="M4750 9228 c-94 -9 -281 -35 -320 -43 -130 -26 -320 -71 -387 -91
-45 -14 -90 -27 -100 -29 -25 -5 -188 -64 -303 -110 -121 -47 -426 -193 -550
-263 -143 -80 -370 -235 -510 -347 -141 -113 -439 -405 -551 -540 -348 -418
-607 -876 -776 -1370 -141 -412 -213 -866 -213 -1340 0 -200 18 -477 39 -595
83 -473 205 -855 381 -1196 224 -433 465 -749 865 -1135 514 -494 1241 -866
2005 -1023 41 -9 111 -20 155 -26 44 -5 134 -17 200 -27 96 -14 189 -17 460
-17 332 0 345 1 550 32 418 64 681 138 1085 306 307 129 642 336 960 595 127
104 430 404 526 521 274 334 423 570 587 930 163 361 270 758 323 1205 23 188
26 682 6 850 -48 397 -146 792 -282 1135 -70 177 -254 537 -355 695 -223 347
-493 658 -815 935 -598 517 -1400 861 -2199 945 -159 17 -635 19 -781 3z"/>
<path d="M9081 6434 c0 -11 3 -14 6 -6 3 7 2 16 -1 19 -3 4 -6 -2 -5 -13z"/>
</g>
</svg>
